<svg xmlns="http://www.w3.org/2000/svg" viewBox="0 0 512 512" role="img" aria-labelledby="title">
  <title id="title">Dia Mia</title>
  <defs>
    <linearGradient id="bg" x1="0" y1="0" x2="1" y2="1">
      <stop offset="0" stop-color="#ffb7df"/>
      <stop offset="1" stop-color="#7b376d"/>
    </linearGradient>
  </defs>
  <rect width="512" height="512" rx="116" fill="#1b1020"/>
  <circle cx="256" cy="256" r="190" fill="url(#bg)"/>
  <circle cx="256" cy="256" r="160" fill="#25111f" opacity=".92"/>
  <path d="M176 139h75c91 0 139 44 139 117s-48 117-139 117h-75V139Zm72 178c46 0 70-20 70-61s-24-61-70-61h-2v122h2Z" fill="#fff4fb"/>
  <path d="M368 115l8 22 22 8-22 8-8 22-8-22-22-8 22-8 8-22Z" fill="#fff4fb"/>
</svg>
